<?xml version="1.0" encoding="UTF-8"?>
<svg id="Layer_2" data-name="Layer 2" xmlns="http://www.w3.org/2000/svg" viewBox="0 0 135.21 102.89">
  <defs>
    <style>
      .cls-1 {
        fill: none;
        stroke: #000;
        stroke-linecap: round;
        stroke-linejoin: round;
        stroke-width: 2.5px;
      }
    </style>
  </defs>
  <g id="Layer_2-2" data-name="Layer 2">
    <g>
      <path class="cls-1" d="M1.25,33.22c1.02-1.78,2.78-3.13,4.76-3.63"/>
      <path class="cls-1" d="M11.2,25.55c2.23-2.17,5.63-2.42,8.65-3.15,1.75-.42,3.46-1.05,5.23-1.33,1.84-.29,3.73-.21,5.57.05,2.08.29,4.14.82,6.11,1.55"/>
      <path class="cls-1" d="M43.12,24.18h.74"/>
      <path class="cls-1" d="M5.83,39.46l2.81-.12"/>
      <path class="cls-1" d="M19.74,42.22c2.44.12,4.9.02,7.33-.29.29-.04.64-.14.67-.43"/>
      <path class="cls-1" d="M49.03,46.82v1.18"/>
      <path class="cls-1" d="M45.63,56.59v2.37"/>
      <path class="cls-1" d="M72.26,38.53h.89"/>
      <path class="cls-1" d="M72.23,25.64c-.73-4.19.24-8.65,2.63-12.16"/>
      <path class="cls-1" d="M81,31.68c2.12.28,4.31.08,6.34-.58"/>
      <path class="cls-1" d="M109.1,1.25h.15"/>
      <path class="cls-1" d="M120.39,7.01c.05,1.13-.41,2.21-.86,3.24-.73,1.67-1.47,3.35-2.2,5.02"/>
      <path class="cls-1" d="M132.61,9.19c.43-.13.9-.15,1.35-.08"/>
      <path class="cls-1" d="M115.02,21.82h.89"/>
      <path class="cls-1" d="M59.28,77.36c.7.15,1.46.03,2.07-.34-.63.11-1.12.76-1.05,1.4"/>
      <path class="cls-1" d="M70.85,73.03c-.03.54.46,1.05,1,1.04.11-1.13.09-2.28-.07-3.4-.09.09-.18.19-.28.28"/>
      <path class="cls-1" d="M82.28,70.31c.19.21.25.53.15.79.14-.66-.04-1.38-.47-1.91"/>
      <path class="cls-1" d="M45.79,98.91l.23.98c-.72-.4-1.37-.93-1.89-1.57"/>
      <path class="cls-1" d="M55.76,101.56c.83.16,1.72.08,2.51-.23-1.11-.67-2.52-.82-3.76-.42"/>
      <path class="cls-1" d="M69,100.4l3.26-.19c-.19-.08-.38-.17-.58-.25"/>
      <path class="cls-1" d="M72.77,95.35c.43.53.96.98,1.56,1.31.06-.69.07-1.39.02-2.08-.01-.2-.04-.43-.2-.56-.15-.12-.36-.12-.56-.11-.64.03-1.27.06-1.91.09.48.12.96.24,1.44.36"/>
      <path class="cls-1" d="M82.63,96.37c.56-.29,1.2-.42,1.83-.37-.6,0-1.2,0-1.8,0"/>
      <path class="cls-1" d="M93.01,96.63h-.78c1.42,0,2.83,0,4.25,0-.69-.02-1.38.3-1.81.83"/>
      <path class="cls-1" d="M103.36,91.25v.41"/>
    </g>
  </g>
</svg>