<?xml version="1.0" encoding="UTF-8"?>
<svg id="Layer_2" data-name="Layer 2" xmlns="http://www.w3.org/2000/svg" viewBox="0 0 46.64 46.16">
  <defs>
    <style>
      .cls-1 {
        fill: none;
        stroke: #000;
        stroke-linecap: round;
        stroke-miterlimit: 10;
        stroke-width: 2.5px;
      }
    </style>
  </defs>
  <g id="Layer_2-2" data-name="Layer 2">
    <path class="cls-1" d="M17.79,23.28c-.67-2.66-1.02-5.4-1.17-8.14-.19-3.51-.53-6.05.36-9.57S21.61.45,24.99,1.64c3.68,1.29,4.27,6.99,4.99,10.25.76-.86,2.05-2.79,2.51-3.28,2.79-2.95,6.56-6.22,10.56-3.86,4.47,2.63,1.55,8.26-.52,11.49-5.63,8.78-14.26,15.32-19.64,24.33-.78,1.31-1.55,2.64-2.31,3.96-.1.17-.22.38-.44.38-.15,0-.28-.11-.38-.21-.56-.55-1.12-.89-1.55-1.25,0,0-1.19-1.1-1.82-1.72-4.05-4.01-7.78-8.28-11.17-12.76-1.72-2.27-3.39-4.69-3.86-7.39s.57-5.76,3.2-7.05c2.7-1.32,6.27-.39,8.57,1.52s3.6,4.6,4.66,7.24Z"/>
  </g>
</svg>