<?xml version="1.0" encoding="UTF-8"?>
<svg id="Layer_2" data-name="Layer 2" xmlns="http://www.w3.org/2000/svg" viewBox="0 0 36.79 42.76">
  <defs>
    <style>
      .cls-1 {
        fill: none;
        stroke: #000;
        stroke-linecap: round;
        stroke-linejoin: round;
        stroke-width: 2.5px;
      }
    </style>
  </defs>
  <g id="Layer_2-2" data-name="Layer 2">
    <path class="cls-1" d="M11.48,37.13c-1.92-1.86-4.08-3.45-5.98-5.34s-3.54-4.14-4.08-6.76.24-5.63,2.41-7.18c1.05-.75,2.33-1.12,3.59-1.42.79-.19,1.6-.36,2.39-.22,1.58.27,2.69,1.65,3.61,2.96,1.06,1.52,2.09,3.22,1.99,5.07-.78-3.07-1.53-6.16-2.25-9.24-.47-2.05-.94-4.11-.96-6.21-.02-1.86.38-3.85,1.73-5.13.95-.9,2.24-1.32,3.48-1.71.83-.26,1.67-.53,2.54-.51,1.87.04,3.51,1.43,4.36,3.1s1.05,3.59,1.17,5.45c.33-1.87.67-3.77,1.57-5.43s2.48-3.08,4.36-3.28c.6-.06,1.24,0,1.71.38.34.27.56.66.76,1.03.84,1.54,1.7,3.18,1.65,4.94-.05,1.72-.99,3.29-1.97,4.7-2.66,3.82-5.9,7.24-9.59,10.09-.32.25-.64.49-.86.83-.42.67-.3,1.52-.22,2.31.43,4.03-.48,8.17-2.46,11.7-.72,1.29-2.2,4.2-3.91,4.24-1.81.04-3.87-3.23-5.05-4.37Z"/>
  </g>
</svg>