<?xml version="1.0" encoding="UTF-8"?>
<svg id="Layer_2" data-name="Layer 2" xmlns="http://www.w3.org/2000/svg" viewBox="0 0 67.04 43">
  <defs>
    <style>
      .cls-1 {
        fill: none;
        stroke: #000;
        stroke-linecap: round;
        stroke-linejoin: round;
        stroke-width: 2.5px;
      }
    </style>
  </defs>
  <g id="Layer_2-2" data-name="Layer 2">
    <g>
      <path class="cls-1" d="M6.01,30.45c.44.42.91.83,1.4,1.21,2.21,1.67,4.74,3.14,7.51,3.27,1.71.09,3.4-.34,5.04-.85,1.82-.57,3.6-1.25,5.38-1.94,2.61-1,5.23-2,7.73-3.25.94-.47,1.89-.99,2.6-1.77,1.49-1.63,1.65-4.2.74-6.21s-2.73-3.5-4.74-4.43-4.19-1.36-6.37-1.76c-1.02-.19-2.51.48-3.43.96L1.25,26.32c.62-.32,4.34,3.46,4.66,4.04.4.73.4,1.77.76,2.56.44,1,1.09,1.91,1.83,2.7,1.33,1.42,2.99,2.5,4.68,3.47,1.5.85,3.05,1.64,4.7,2.1,2.68.75,5.53.62,8.3.37,14.39-1.28,28.91-5.92,39.61-15.62"/>
      <path class="cls-1" d="M46.08,1.25c-6.29,4.43-15.87,10.37-23.33,14.01,2.29-1.15,7.19-.91,10.43.69s5.69,5.55,3.16,10.21"/>
    </g>
  </g>
</svg>