<?xml version="1.0" encoding="UTF-8"?>
<svg id="Layer_2" data-name="Layer 2" xmlns="http://www.w3.org/2000/svg" viewBox="0 0 43.59 63.25">
  <defs>
    <style>
      .cls-1 {
        fill: none;
        stroke: #000;
        stroke-linecap: round;
        stroke-linejoin: round;
        stroke-width: 2.5px;
      }
    </style>
  </defs>
  <g id="Layer_2-2" data-name="Layer 2">
    <g>
      <path class="cls-1" d="M1.25,1.41c7.04,10.19,14.07,20.39,20.65,30.88,6.4,10.2,12.41,20.74,20.44,29.71"/>
      <path class="cls-1" d="M16.78,12.84c-4.75,3.11-2.75,11.03,3.05,11.27,2.35.09,4.66-1.58,5.3-3.85.25-.9.26-1.86.15-2.79-.17-1.43-.64-2.86-1.61-3.92-1.7-1.85-4.79-2.08-6.89-.71Z"/>
      <path class="cls-1" d="M15.92,6.8c-.66-.1-1.27.66-1.05,1.29s1.12.87,1.64.45.49-1.32-.02-1.74"/>
      <path class="cls-1" d="M9.74,1.42c-.11.32-.22.65-.15.98s.36.64.69.59c.23-.03.42-.23.5-.45.15-.41-.02-.92-.39-1.15s-.91-.16-1.21.15"/>
      <path class="cls-1" d="M11.1,9.91c-.16.18-.03.53.22.55.19-.35-.34-.79-.65-.55-.05.13-.1.25-.15.38.13.26.56.23.74,0s.15-.57.06-.84c-.35.01-.7.02-1.05.03-.24.24-.28.65-.09.94s.57.41.89.3"/>
    </g>
  </g>
</svg>