<?xml version="1.0" encoding="UTF-8"?>
<svg id="Layer_2" data-name="Layer 2" xmlns="http://www.w3.org/2000/svg" viewBox="0 0 40.85 49.68">
  <defs>
    <style>
      .cls-1 {
        fill: none;
        stroke: #000;
        stroke-linecap: round;
        stroke-linejoin: round;
        stroke-width: 2.5px;
      }
    </style>
  </defs>
  <g id="Layer_2-2" data-name="Layer 2">
    <g>
      <path class="cls-1" d="M8.64,33.39c.86,2.77,1.42,5.87,1.99,8.72.52,2.62,2.48,4.89,4.99,5.8,2.65.96,5.58.42,8.31-.24,2.1-.51,4.3-1.17,5.75-2.78.9-1.01,1.42-2.29,1.89-3.56,1.08-2.96,1.94-5.99,2.59-9.07.77-3.7-2.25-7.83-3.97-11.19-.54-1.05-1.13-2.1-2.02-2.88-.93-.82-2.11-1.28-3.31-1.6-2.55-.68-5.25-.74-7.83-.17-1.84.4-3.67,1.16-4.96,2.53-.68.73-1.19,1.6-1.63,2.5-1.81,3.72-3.04,7.99-1.81,11.94Z"/>
      <path class="cls-1" d="M32.43,41.96c3.13-1.28,5.25-4.34,6.22-7.57s.96-6.67.94-10.05c-.04-7.24-.08-14.48-.12-21.73"/>
      <path class="cls-1" d="M10.32,42.38c-1.14-.41-1.97-1.4-2.68-2.4-3.85-5.44-5.65-12.13-6.2-18.77s.1-13.33.75-19.96"/>
      <path class="cls-1" d="M10.48,39.74c.68,1.69,2.49,2.58,4.15,3.33,1.65.74,3.37,1.49,5.18,1.47,1.13-.01,2.23-.33,3.32-.66,3.72-1.14,7.64-2.71,9.7-6.01"/>
    </g>
  </g>
</svg>