<?xml version="1.0" encoding="UTF-8"?>
<svg id="Layer_2" data-name="Layer 2" xmlns="http://www.w3.org/2000/svg" viewBox="0 0 72.14 21.13">
  <defs>
    <style>
      .cls-1 {
        fill: none;
        stroke: #000;
        stroke-linecap: round;
        stroke-linejoin: round;
        stroke-width: 2.5px;
      }
    </style>
  </defs>
  <g id="Layer_2-2" data-name="Layer 2">
    <g>
      <path class="cls-1" d="M5.79,1.25c-1.4,2.54-2.81,5.09-3.75,7.83-.55,1.6-.94,3.29-.73,4.97s1.08,3.34,2.57,4.14c1.06.58,2.38.67,3.51.24s2.06-1.36,2.47-2.5c.49-1.35.27-2.84-.02-4.25-.61-2.98-3.95-10.6-4.04-10.43Z"/>
      <path class="cls-1" d="M19.05,8.33c-.5.27-.97.6-1.37,1-.94.93-1.5,2.27-1.4,3.59s.9,2.59,2.09,3.18c1.01.49,2.22.48,3.27.08s1.93-1.17,2.59-2.08c1.23,1.11,2.64,2.24,4.29,2.4s3.48-.66,4.06-2.21c.25-.66.26-1.4.21-2.1-.03-.42-.07-.85-.21-1.25-.51-1.51-2.16-2.35-3.74-2.6"/>
      <path class="cls-1" d="M42.08,2.87c-.58,3.02-.95,6.09-1.1,9.17-.07,1.41-.09,2.84.29,4.19s1.22,2.64,2.48,3.26c1.6.78,3.62.33,4.98-.83s2.11-2.89,2.41-4.65.19-3.55.08-5.33c-.14-2.22-.28-4.43-.41-6.65"/>
      <path class="cls-1" d="M59.12,10.65c-.9,2.39-.17,5.29,1.75,6.97s4.9,2.02,7.14.81c.72-.39,1.38-.93,1.84-1.61.39-.57.65-1.23.81-1.9.46-1.87.2-3.93-.85-5.54-2.7-4.12-8.98-3.28-10.7,1.26Z"/>
    </g>
  </g>
</svg>