<?xml version="1.0" encoding="UTF-8"?>
<svg id="Layer_2" data-name="Layer 2" xmlns="http://www.w3.org/2000/svg" viewBox="0 0 27.2 84.5">
  <defs>
    <style>
      .cls-1 {
        fill: none;
        stroke: #000;
        stroke-linecap: round;
        stroke-linejoin: round;
        stroke-width: 2.5px;
      }
    </style>
  </defs>
  <g id="Layer_2-2" data-name="Layer 2">
    <g>
      <path class="cls-1" d="M5.14,1.43c2.94-.41,6.05-.18,8.67,1.21s4.66,4.08,4.75,7.04c-5.77.32-11.54.63-17.31.95.04,1.75.15,3.5.35,5.25.35,3.17,1.02,6.45,2.99,8.96s3.91,3.25,6.97,2.34c2.72-.81,3.97-5.14,4.23-8.52.22-2.79.23-5.57.35-8.35"/>
      <path class="cls-1" d="M25.95,30.5c0-3.5-.54-7-1.57-10.34-2.01,1.62-3.13,4.15-3.55,6.71s-.2,5.16.02,7.74c.23,2.64.48,5.28.74,7.92.25,2.51.5,5.03.55,7.56.07,3.42-.25,6.83-.56,10.23-.7,7.65-1.4,15.29-2.11,22.94"/>
      <path class="cls-1" d="M5.19,38.93c1.73,1.21,4.16,1.36,6.02.35"/>
      <path class="cls-1" d="M4.8,62.26c1.82,1.32,4.4,1.5,6.39.45"/>
    </g>
  </g>
</svg>