<?xml version="1.0" encoding="UTF-8"?>
<svg id="Layer_2" data-name="Layer 2" xmlns="http://www.w3.org/2000/svg" viewBox="0 0 39.01 70.45">
  <defs>
    <style>
      .cls-1 {
        fill: none;
        stroke: #000;
        stroke-linecap: round;
        stroke-linejoin: round;
        stroke-width: 2.5px;
      }
    </style>
  </defs>
  <g id="Layer_2-2" data-name="Layer 2">
    <path class="cls-1" d="M10.63,4.37c5.69,1.13,11.43,2.04,17.2,2.73-2.95-.06-5.89-.54-8.7-1.44l3.76-4.4c-3.03,3.66-6.32,7.11-9.83,10.3,2.03-2.12,4.4-3.92,6.99-5.29.07,4.67,0,9.34-.19,14-2.9-1.18-6.09-1.65-9.21-1.35-.87.08-1.76.23-2.51.68-.66.39-1.17.99-1.63,1.6-3.16,4.11-5.02,9.21-5.24,14.39,1.44-.1,2.87-.23,4.3-.4.57.9.3,1.83.86,2.72.34.55.69,1.1.85,1.73.15.59.12,1.2.09,1.8-.13,2.49-.25,4.98-.38,7.47-.05,1.02-.1,2.04-.25,3.05-.15,1.03-.4,2.04-.65,3.05-.69,2.78-1.37,5.56-2.06,8.35-.22.9-.45,1.81-.42,2.74s.33,1.89,1.01,2.51,1.79.83,2.56.31c.25-.17.46-.41.56-.7.09-.25.09-.52.08-.78-.03-1.12-.18-2.24-.08-3.36.08-.99.35-1.95.52-2.93.79-4.77-1-9.58-1.02-14.42,0-1.35.13-2.7-.04-4.04-.23-1.85-1.01-3.57-1.34-5.39-.11-.62-.4-1.76.09-2.15s2.34-.31,2.99-.41c.76-2.12,1.69-4.18,2.76-6.16.14-.26.29-.52.53-.7.29-.22.66-.27,1.02-.31,1.38-.18,2.77-.35,4.15-.53,1.26-.16,2.54-.32,3.81-.23,2.83.21,5.53,1.67,8.36,1.45-.23-.18-.47-.35-.7-.53,2.79,1.03,5.65,1.86,8.55,2.48.12-3.42.23-6.85.35-10.27.02-.68.04-1.4-.31-1.98-.55-.92-1.85-1.16-2.85-.78s-1.74,1.24-2.33,2.13c-.51.76-.94,1.57-1.26,2.43-.84,2.23-.88,4.67-.9,7.05.03-1.86.06-3.73.09-5.59,0-.26,0-.54-.15-.75-.19-.26-.53-.33-.85-.38-2.98-.47-5.95-.94-8.93-1.42"/>
  </g>
</svg>