<?xml version="1.0" encoding="UTF-8"?>
<svg id="Layer_2" data-name="Layer 2" xmlns="http://www.w3.org/2000/svg" viewBox="0 0 84.67 45.93">
  <defs>
    <style>
      .cls-1 {
        fill: none;
        stroke: #000;
        stroke-linecap: round;
        stroke-linejoin: round;
        stroke-width: 2.5px;
      }
    </style>
  </defs>
  <g id="Layer_2-2" data-name="Layer 2">
    <g>
      <path class="cls-1" d="M8.06,22.88c1.56,3.2,3.81,6.07,6.54,8.36,5.73-.67,11.47-1.35,17.24-1.42,13.93-.19,27.89,3.18,40.21,9.69,3.02-3.46,6.28-6.77,9.86-9.65"/>
      <path class="cls-1" d="M1.25,29.59l10.89,1.12c.38.04.78.08,1.12.26.53.27.84.82,1.18,1.31,1.63,2.44,4.15,4.14,6.73,5.55,12.37,6.74,27.15,7.9,41.12,6.05,3.13-.41,6.3-.89,9.07-2.41,3.74-2.05,8.13-2.5,12.06-4.18"/>
      <path class="cls-1" d="M62.55,1.27c-2.52.12-5.07.46-7.38,1.48s-4.37,2.77-5.33,5.11c-1.15,2.8-.53,6.18,1.31,8.58s4.78,3.86,7.79,4.18,6.08-.42,8.78-1.79c-.69-.31-1.62-.87-2.31-1.19-1.18-.54-2.38-1.09-3.37-1.92-1.45-1.21-2.4-3-2.59-4.88s.39-3.82,1.57-5.29c.72-.9,1.38-1.85,2.35-2.47s2.12-1.42,3.21-1.78c-1.66-.15-3.95.05-4.03-.04Z"/>
    </g>
  </g>
</svg>