<?xml version="1.0" encoding="UTF-8"?>
<svg id="Layer_2" data-name="Layer 2" xmlns="http://www.w3.org/2000/svg" viewBox="0 0 87.61 72.72">
  <defs>
    <style>
      .cls-1 {
        fill: none;
        stroke: #000;
        stroke-linecap: round;
        stroke-linejoin: round;
        stroke-width: 2.5px;
      }
    </style>
  </defs>
  <g id="Layer_2-2" data-name="Layer 2">
    <path class="cls-1" d="M35.08,1.25c-2.22,2.39-1.32,6.88,1.65,8.24-2.22.21-4.24,1.81-4.96,3.92s-.07,4.61,1.56,6.12c-4.8-.47-9.87.91-14.35-.87-2.4-.95-4.37-2.72-6.29-4.45-1.34-1.21-2.69-2.43-4.03-3.64-1.79.51-3.42,1.1-4.9,2.21-1.47,1.11-2.84,2.81-2.44,4.61.41,1.83,2.43,2.81,3.32,4.45.65,1.2.67,2.7,1.48,3.8.8,1.09,2.21,1.56,3.55,1.7s2.71.03,4.04.28c2.87.52,5.34,2.8,6.1,5.61-2.29.6-4.23,2.05-5.49,4.05s-1.87,4.37-2.05,6.73c-.08,1.02-.09,2.07-.5,3-.34.78-.94,1.41-1.44,2.1-2.61,3.61-2.29,9.05.73,12.33-2.21-.26-4.43,1.44-5.36,3.46s-.84,4.38-.35,6.56c-.24-.39.09-.88.44-1.19,1.61-1.45,3.78-2.06,5.68-3.1,1.7-.93,3.23-2.24,4.2-3.92s1.35-3.74.82-5.6c4.82-2.21,7.67-8.14,6.29-13.26,4-.93,6.82-5.36,5.98-9.38-.03-.12-.08-.27-.21-.28s-.11.26,0,.19c1.98.29,4-.48,5.45-1.86s2.45-3.16,3.42-4.91c1.7.56,3.43,1.12,5.21,1.26s3.67-.17,5.12-1.23c.96-.7,1.69-1.69,2.21-2.75.63-1.27,1-2.66,1.09-4.07,2.89-.2,6.01.65,8.71-.4,1.36-.53,2.53-1.45,3.67-2.36,1.57-1.25,3.21-2.58,3.99-4.43,2.09,1.73,4.53,3.35,7.23,3.55,2.15.16,4.25-.75,6.07-1.91,1.7-1.09,3.28-2.43,4.34-4.15s1.58-3.83,1.12-5.79"/>
  </g>
</svg>