<?xml version="1.0" encoding="UTF-8"?>
<svg id="Layer_2" data-name="Layer 2" xmlns="http://www.w3.org/2000/svg" viewBox="0 0 76.24 84.68">
  <defs>
    <style>
      .cls-1 {
        fill: none;
        stroke: #000;
        stroke-linecap: round;
        stroke-linejoin: round;
        stroke-width: 2.5px;
      }
    </style>
  </defs>
  <g id="Layer_2-2" data-name="Layer 2">
    <g>
      <path class="cls-1" d="M13.22,83.43c-.5-1.64.2-3.47,1.39-4.71s2.81-1.97,4.42-2.54c4.09-1.45,8.49-2.03,12.81-1.7-2.05-.02-4.09-.03-6.14-.05-.86,0-1.74-.02-2.53-.33s-1.51-.99-1.61-1.84c-.11-.94.56-1.82,1.4-2.27s1.8-.54,2.74-.62"/>
      <path class="cls-1" d="M29.92,68.54c5.4-.52,10.48,2.33,15.15,5.08,1.28.75,2.55,1.5,3.83,2.25"/>
      <path class="cls-1" d="M52.19,83.28c1.89-1.63,3.5-3.73,3.99-6.18s-.35-5.26-2.46-6.61c.8,1.24,1.8,2.41,3.14,3.02s3.08.5,4.1-.56c.5-.52.78-1.21,1.02-1.89.5-1.41.82-3.19-.25-4.23"/>
      <path class="cls-1" d="M27.94,64.49c-.41-.65-.26-1.54.2-2.17s1.16-1.02,1.87-1.3c2.68-1.08,5.78-.9,8.44.22s4.89,3.14,6.53,5.52"/>
      <path class="cls-1" d="M10.91,74.65c-.7-2.32-1.74-4.58-1.86-7-.02-.44,0-.89.15-1.31.13-.34.34-.63.55-.92,1.01-1.38,2.02-2.76,3.19-4"/>
      <path class="cls-1" d="M4.6,67.9c.17-1.13-.23-2.28-.8-3.27s-1.34-1.86-1.98-2.8c-.25-.37-.49-.76-.55-1.19-.11-.74.3-1.46.71-2.09.83-1.28,1.88-2.59,3.38-2.9"/>
      <path class="cls-1" d="M42.35,55.55c-1.19-1.38-2.55-2.86-4.36-3.09-.96-.13-1.93.13-2.87.4-1.86.54-3.69,1.17-5.51,1.8l-13.31,4.59c2.19-.39,4.03-.83,6.11-1.63.89-.34,1.79-.73,2.54-1.32,1.05-.83,1.77-2,2.46-3.15.96-1.61,1.93-3.23,3.24-4.57s3.01-2.39,4.87-2.54c1.31-.1,2.62.24,3.89.57,3.25.86,6.5,1.72,9.75,2.58.5.13,1.02.27,1.47.53.92.54,1.45,1.52,2.05,2.41.98,1.45,2.22,2.72,3.64,3.73.75.53,1.55.99,2.19,1.65s1.11,1.56.98,2.46c-.04-1.49-1.05-2.81-2.15-3.81-.65-.59-1.47-1.07-1.76-1.89-.48-1.32.63-2.63,1.56-3.68.97-1.09,1.85-2.32,2.21-3.74s.07-3.07-1-4.06c-.58-.54-1.34-.84-2.08-1.12-9.88-3.66-21.02-3.84-31.01-.48-.65.22-1.31.46-1.85.89-.55.44-.93,1.06-1.29,1.66-.97,1.59-1.94,3.19-2.92,4.78"/>
      <path class="cls-1" d="M13.56,56.62c-1.39-1.29-2.76-2.64-3.7-4.29s-1.41-3.64-.88-5.46c.19-.66.51-1.29.55-1.98.09-1.66-1.44-2.92-2.9-3.72s-3.13-1.58-3.74-3.12c-.48-1.22-.14-2.63.56-3.74s1.73-1.95,2.74-2.78c-1.11,1.04-2.25,2.11-2.92,3.48s-.78,3.12.13,4.34c1.05,1.41,3.03,1.69,4.54,2.6.43.26.84.58,1.31.77,1.69.68,3.49-.52,4.94-1.62,6.41-4.91,13.16-9.38,20.19-13.35-3.31,1.68-6.62,3.36-9.94,5.04-.79.4-1.93.72-2.42-.02-.33-.5-.1-1.16.2-1.68.88-1.51,2.32-2.6,3.72-3.65.48-.36.95-.72,1.43-1.08,1.31-.98,2.64-1.98,4.2-2.49,2.6-.85,5.46-.2,7.99.85s4.9,2.48,7.51,3.31c1.65.52,3.55.9,4.52,2.33.31.46.49,1,.69,1.52.51,1.33,1.17,2.61,1.95,3.8.33.5.95,1.04,1.43.69"/>
      <path class="cls-1" d="M59.1,43.41c1.84-2.22,3.28-4.76,4.24-7.47.25-.72.54-1.52,1.23-1.84.33-.15.71-.17,1.07-.16,1.85.05,3.67.68,5.16,1.77,1.51,1.11,2.65,2.66,4.18,3.73-.22,2.58-1.85,5-4.17,6.17s-5.23,1.04-7.44-.32c2.06.37,4.09.94,6.04,1.7.28.11.56.22.77.43.27.26.4.62.49.98.89,3.25-.3,6.96-2.9,9.1"/>
      <path class="cls-1" d="M50.47,20.19l7.72,5.49c.73.52,1.46,1.04,2.07,1.68,1.72,1.8,2.33,4.36,2.88,6.79-2.31-4.17-3.48-8.96-3.35-13.73.02-.66.04-1.39-.37-1.9-.27-.34-.68-.52-1.08-.69-7.73-3.22-16.17-4.23-24.49-5.21-.52-.06-1.06-.12-1.54.09-.49.22-.82.67-1.12,1.11-1.18,1.69-2.35,3.38-3.53,5.07"/>
      <path class="cls-1" d="M14.94,39.47c-1.78-1.87-3.7-4.09-3.44-6.67.24-2.47,2.42-4.28,4.62-5.43s4.65-1.98,6.37-3.77c-1.06.38-2.12.75-3.18,1.13-.88.31-1.91.6-2.69.08-.35-.23-.58-.6-.72-1-.46-1.29.05-2.77.94-3.8s2.11-1.73,3.31-2.4c1.49-.83,2.99-1.67,4.48-2.5"/>
      <path class="cls-1" d="M4.88,26.05c.06-1.33-.89-2.56-.75-3.88.17-1.65,1.88-2.63,3.38-3.33,2.1-.98,4.2-1.96,6.3-2.94-.89.04-1.79.08-2.68.13-.26.01-.53.02-.75-.12-.33-.21-.38-.67-.4-1.06-.1-2.06-.12-4.37,1.31-5.86.62-.65,1.44-1.05,2.25-1.45,2.19-1.07,4.39-2.14,6.58-3.21,1.06-.52,2.15-1.04,3.32-1.12s2.46.4,3,1.44c-1.24,1.45-2.7,2.7-4.32,3.7,2.97-1.78,5.76-3.88,8.89-5.36s6.75-2.3,10.07-1.31c2.21.65,4.11,2.05,6.15,3.11,1.47.77,3.03,1.37,4.63,1.8.47.12.97.25,1.31.59.48.48.52,1.23.53,1.91.02,1.84.04,3.68.05,5.52"/>
      <path class="cls-1" d="M57.68,5.71c1.15.2,2.4-.29,3.45.22.67.33,1.09,1.01,1.46,1.66.65,1.15,1.24,2.34,1.77,3.55"/>
      <path class="cls-1" d="M61.03,15.52c.77-.27,1.65-.04,2.33.42s1.19,1.12,1.67,1.78c2.08,2.84,3.86,5.91,5.28,9.12"/>
    </g>
  </g>
</svg>