<?xml version="1.0" encoding="UTF-8"?>
<svg id="Layer_2" data-name="Layer 2" xmlns="http://www.w3.org/2000/svg" viewBox="0 0 61.37 47.18">
  <defs>
    <style>
      .cls-1 {
        fill: none;
        stroke: #000;
        stroke-linecap: round;
        stroke-linejoin: round;
        stroke-width: 2.5px;
      }
    </style>
  </defs>
  <g id="Layer_2-2" data-name="Layer 2">
    <path class="cls-1" d="M7.83,45.9c-1.75.2-4.37-.4-5.33-1.87-.5-.75-.6-1.69-.7-2.58-.15-1.47-.31-2.94-.46-4.41-.11-1.07-.21-2.23.33-3.17.34-.59.9-1.03,1.47-1.4,1.9-1.24,2.63-1.71,4.83-2.25.1,2.39-.19,4.81.13,7.18-.28-5.94-.38-24.21-.36-27.67,0-1.6.02-4.07.68-5.53s1.57-2.59,3.55-2.59c.88,0,2.27.38,2.86,2.29.29.93.23,2.1.23,3.07.01,4.72.09,9.65.06,14.31,0-2.9-.14-5.59.08-8.3.1-1.23.21-2.5.75-3.62s1.6-2.06,2.84-2.1c1.81-.04,2.51,1.02,3.04,2.25s.56,2.6.57,3.94c.06,4.33.11,8.65.17,12.98-.21-6.15.07-12.04.21-18.19.03-1.47.09-2.98.72-4.31s1.99-2.42,3.45-2.27c1.3.13,2.35,1.22,2.82,2.44s.49,2.56.5,3.87c.03,4.16.06,8.32.09,12.47-.06-2.91,0-5.74.35-8.64.15-1.25.38-2.58,1.26-3.47,1.2-1.23,3.44-1.14,4.6.13,1.07,1.17,1.07,2.82,1.11,4.4.1,4.3-.07,13.85-.07,14.39,0,0,.07-12.23.09-18.55,0-1.75-.24-3.46.55-5.02s2.55-2.79,4.25-2.38c2.37.57,2.72,3.57,2.86,6,.25,4.35-.18,13.05-.18,13.05,0,0,.21-6.14.26-9.43.02-1.25.2-2.58.89-3.62s1.94-1.5,3.17-1.26c2.11.41,2.66,2.82,2.74,4.97.2,5.83.23,10.67.08,16.5.06-6.56.12-12.12.18-18.68.01-1.45.03-2.95.57-4.3s1.72-2.55,3.17-2.67c1.65-.13,2.71,1.17,3.34,2.7s.59,3.24.54,4.89l-.27,35.67"/>
  </g>
</svg>