<?xml version="1.0" encoding="UTF-8"?>
<svg id="Layer_2" data-name="Layer 2" xmlns="http://www.w3.org/2000/svg" viewBox="0 0 47 68.69">
  <defs>
    <style>
      .cls-1 {
        fill: none;
        stroke: #000;
        stroke-linecap: round;
        stroke-linejoin: round;
        stroke-width: 2.5px;
      }
    </style>
  </defs>
  <g id="Layer_2-2" data-name="Layer 2">
    <g>
      <path class="cls-1" d="M41.73,7.78c-.17-.9-.95-1.65-1.86-1.77-.91-.12-1.86.39-2.26,1.22.17-1.13.13-2.4-.25-3.48-.38-1.08-1.51-1.98-2.62-1.7-.77.2-1.3.88-1.77,1.51-.47-1.27-1.69-2.3-3.05-2.32-1.36-.02-2.69,1.14-2.66,2.49-.5-1.2-2-1.83-3.24-1.45-1.24.38-2.12,1.65-2.14,2.95-1.02-.18-1.87-1.02-2.91-1.04-1.23-.03-2.26,1.37-1.87,2.53-.54-.57-1.96.14-2.67-.2-1.01-.5-2.36-.17-3.04.74-.28.38-.42.84-.45,1.32h30.8c.03-.27.03-.53-.02-.8Z"/>
      <path class="cls-1" d="M44.05,41.02c.03-.51,0-1.06-.09-1.58H2.97c-.2,1.49.48,3.11,1.78,3.9,1.6.98,3.89.58,5.07-.88-.09,1.65,1.22,3.3,2.86,3.45s3.28-1.35,3.14-3c.1,1.02.72,2,1.61,2.52s2.07.54,2.93-.02c.86-.56,1.32-1.71,1.02-2.69.79,1.06,1.67,2.18,2.93,2.56.41.12.86.16,1.26,0,.53-.21.9-.72,1.06-1.27.17-.55.16-1.13.16-1.7.82,1.14,2.1,1.93,3.49,2.15-.3.75-.46,1.54-.52,2.35h12.53c1.03-1.77,1.65-3.78,1.77-5.81Z"/>
      <path class="cls-1" d="M29.76,51.94c-.1,1.37.08,2.79.33,4.13.26,1.35.65,2.72,1.49,3.82.83,1.1,2.2,1.88,3.56,1.69.38,1.24.83,2.53,1.43,3.68.49.93,1.13,1.9,2.14,2.19.36-3.99.53-7.99.52-12,1.25-.93,2.27-2.14,3.06-3.5h-12.53Z"/>
      <path class="cls-1" d="M44.33,20.86c.56-1.26.73-2.68.65-4.05-.04-.67-.2-1.41-.75-1.79-.4-.28-.92-.3-1.4-.25-.5.06-.99.19-1.44.4-.03-.79.28-1.57.37-2.35H10.95c-.03.66.18,1.32.63,1.8-1.09-.55-2.32-.9-3.52-.68-1.19.23-2.31,1.16-2.45,2.37-.05.43.05.9.32,1.23.12.1.24.2.35.3-.11-.1-.23-.2-.35-.3-.69-.57-1.48-1.08-2.35-.96-.64.08-1.2.51-1.59,1.02-.89,1.18-.97,2.9-.2,4.16h43.97c-.37-.45-.85-.78-1.42-.89Z"/>
      <path class="cls-1" d="M12.02,29.2c3.12,2.88,7.38,4.48,11.62,4.35s8.4-1.97,11.34-5.03"/>
    </g>
  </g>
</svg>