<?xml version="1.0" encoding="UTF-8"?>
<svg id="Layer_2" data-name="Layer 2" xmlns="http://www.w3.org/2000/svg" viewBox="0 0 52.83 57.86">
  <defs>
    <style>
      .cls-1 {
        fill: none;
        stroke: #000;
        stroke-linecap: round;
        stroke-linejoin: round;
        stroke-width: 2.5px;
      }
    </style>
  </defs>
  <g id="Layer_2-2" data-name="Layer 2">
    <g>
      <path class="cls-1" d="M22.24,6.74c-.39-1.17.64-2.56,1.87-2.53,1.04.02,1.89.85,2.91,1.04.03-1.3.9-2.57,2.14-2.95s2.75.25,3.24,1.45c-.03-1.36,1.3-2.51,2.66-2.49s2.58,1.05,3.05,2.32c.47-.64,1-1.32,1.77-1.51,1.11-.28,2.24.62,2.62,1.7s.43,2.35.25,3.48c.4-.82,1.35-1.34,2.26-1.22s1.69.87,1.86,1.77c.19,1.05-.39,2.09-.35,3.15.45-.21.94-.35,1.44-.4.48-.06,1-.03,1.4.25.55.38.71,1.12.75,1.79.08,1.37-.09,2.8-.65,4.05,1.31.25,2.21,1.66,2.1,2.99s-1.08,2.49-2.29,3.05c1.16.38,1.88,1.76,1.54,2.93s-1.69,1.94-2.87,1.63c.56.74.68,1.78.31,2.63s-1.25,1.5-2.17,1.6c1.27.7,1.59,2.39,1.51,3.84-.2,3.59-1.95,7.16-4.83,9.31.02,4.01-.16,8.01-.52,12-1.01-.3-1.65-1.26-2.14-2.19-.6-1.15-1.04-2.44-1.43-3.68-1.36.19-2.73-.59-3.56-1.69s-1.22-2.46-1.49-3.82c-.41-2.12-.62-4.47.19-6.47-1.38-.22-2.67-1.02-3.49-2.15,0,.57,0,1.15-.16,1.7s-.53,1.06-1.06,1.27c-.4.15-.85.12-1.26,0-1.27-.38-2.14-1.5-2.93-2.56.3.98-.16,2.13-1.02,2.69s-2.04.55-2.93.02-1.51-1.5-1.61-2.52c.14,1.65-1.5,3.15-3.14,3s-2.95-1.8-2.86-3.45c-1.17,1.46-3.47,1.86-5.07.88s-2.28-3.21-1.51-4.92c-1.02.58-2.4.6-3.3-.16s-1.16-2.65-.23-3.37c-.9-.2-1.58-1.01-1.83-1.9s-.17-1.84,0-2.75c.13-.69.32-1.4.78-1.93s1.26-.83,1.89-.51c-.94-.59-1.98-1.33-2.11-2.44-.11-.93.48-1.78,1.03-2.53.17-.23.36-.48.63-.58.21-.08.45-.06.67-.02.94.14,1.85.5,2.63,1.04-.79-1.26-.71-3.01.18-4.19.39-.52.95-.94,1.59-1.02,1.02-.13,1.93.59,2.71,1.26-.53-.27-.74-.94-.67-1.53.14-1.21,1.26-2.14,2.45-2.37s2.43.13,3.52.68c-.77-.83-.85-2.21-.18-3.12s2.02-1.24,3.04-.74c.71.35,2.12-.37,2.67.2Z"/>
      <path class="cls-1" d="M27.55,20.18c.02.41-.48.61-.78.91-.44.44-.36,1.28.15,1.63.65.44,1.6.01,1.97-.67s.32-1.52.22-2.3c-.04-.33-.1-.67-.26-.96-.25-.43-.74-.7-1.24-.74s-1,.12-1.42.4c-.51.34-.91.84-1.13,1.42-.22.6-.24,1.25-.24,1.89,0,.53.02,1.08.23,1.57.42.98,1.71,2.06,2.74,1.75,1.08-.32,1.93-1.22,2.37-2.26s.5-2.2.37-3.32c-.06-.54-.18-1.09-.44-1.57-.87-1.55-3.21-1.77-4.68-.77s-2.18,2.83-2.37,4.59c-.12,1.08-.04,2.28.68,3.1.79.9,2.12,1.08,3.32,1.1,1.96.04,3.97-.19,5.7-1.11,1.31-.7,2.39-1.76,3.45-2.81.88-.87,1.82-1.94,2.7-2.81-3.29-3.5-8.64-4.72-13.29-3.51s-8.56,4.64-10.9,8.84c4.12.78,8.3,1.48,12.49,1.52"/>
    </g>
  </g>
</svg>