<?xml version="1.0" encoding="UTF-8"?>
<svg id="Layer_2" data-name="Layer 2" xmlns="http://www.w3.org/2000/svg" viewBox="0 0 77.41 85.28">
  <defs>
    <style>
      .cls-1 {
        fill: none;
        stroke: #000;
        stroke-linecap: round;
        stroke-linejoin: round;
        stroke-width: 2.5px;
      }
    </style>
  </defs>
  <g id="Layer_2-2" data-name="Layer 2">
    <path class="cls-1" d="M2.83,77.14c-1.6.69-2.04,3.01-1.05,4.44,1.39,2,5.01,1.65,5.99-.58s-1.2-5.14-3.62-4.81c-.74-2.6-1.47-5.2-2.21-7.8,2.47.11,4.35-2.09,5.82-4.08,2.16-2.92,4.31-5.84,6.47-8.77.31,1.6.83,3.15,1.55,4.62,4.05-.48,8.09-.95,12.14-1.43l1.18,2.55c1.28-.58,2.63-.99,4.01-1.22,1.01,1.46,1.62,3.2,1.75,4.97-4.85,3.01-9.58,6.2-14.18,9.57,4.35-2.3,8.61-4.79,12.75-7.45.54-.35,1.1-.73,1.39-1.3.33-.67.21-1.46.09-2.2-.42-2.53-.85-5.05-1.27-7.58-.51-3.02-1.11-6.22-3.2-8.45-1.22-1.3-3.05-2.59-2.7-4.34.12-.58.47-1.07.81-1.55,2.12-2.93,4.23-5.86,6.35-8.79-2.48-2.92-4.66-6.08-6.5-9.43,3.1-2.97,5.9-6.26,8.33-9.81l-3.76,4.61c-2.33-1.58-4.28-3.71-5.66-6.16-3.68,3.15-7.3,6.36-10.85,9.65,1.28,3.56,3.34,6.84,5.98,9.55-2.41,1.07-4.73,2.36-6.92,3.83,1.76,1.3,3.53,2.6,5.29,3.91-1.77-1.52-3.55-3.04-5.32-4.56,2.17-1.57,4.34-3.15,6.51-4.72-2.16-2.61-3.95-5.51-5.32-8.6,1.33-1.3,2.67-2.61,4-3.91.37-.36.76-.77.81-1.28.04-.48-.23-.92-.5-1.32-.96-1.46-1.91-2.92-2.87-4.39,1.45-1.42,2.9-2.83,4.35-4.25-2.63-.65-5.25-1.3-7.88-1.95-.57-.14-1.17-.3-1.6-.7-.34-.32-.53-.76-.82-1.13-1.08-1.4-3.55-1.33-4.56.12s-.19,3.79,1.51,4.3,3.67-.98,3.64-2.75c3.16.43,6.33.85,9.49,1.28.71,2.21-4.24,2.9-3.81,5.18.08.42.35.77.61,1.11.78,1.01,1.56,2.01,2.34,3.02.19.24.41.51.71.56.33.06.65-.14.93-.33,1.35-.93,2.7-1.87,4.06-2.8,1.78,1.89,3.56,3.77,5.34,5.66l-4.73,5.96c2.81,2.64,5.41,5.5,7.79,8.53l-7.98,10.68c1.92,2.23,3.72,4.56,5.38,6.99.86-2.17,3.14-3.36,4.79-5.01,2.06-2.05,3.16-4.85,4.2-7.57.44-1.14.88-2.33.72-3.54s-1.16-2.39-2.38-2.31c2.76-2.81,5.51-5.61,8.27-8.42l-1.83-6.35c.95,1.65,1.92,3.38,2.09,5.28s-.72,4.03-2.51,4.7c4.15.9,8.38,1.4,12.63,1.52.21-3.32.8-7.24,3.78-8.73,2.45-1.23,5.65-.25,7.95-1.73-.6-2.78-.9-5.63-.9-8.47-1.8.72-3.93-1.25-3.58-3.15s2.71-3.03,4.52-2.35c1.22.46,2.17,1.68,2.11,2.97s-1.32,2.48-2.6,2.27c.13,2.29.25,4.59.38,6.88.03.6.04,1.26-.35,1.71-.3.34-.77.48-1.21.59-2.75.71-5.55,1.23-8.37,1.57,2.91,2.55,6.44,4.39,10.19,5.3-.05,3.34-.1,6.68-.15,10.02l5.5-.79-5.37.5c0-2.8.02-5.6.03-8.4,0-.39,0-.8-.22-1.12-.2-.29-.54-.46-.86-.6-2.52-1.15-5.03-2.31-7.55-3.46-1.03,2.32-2.07,4.64-3.1,6.96-4.68.25-9.4-.07-14.01-.96-1.33,1.55-2.81,2.97-4.4,4.25.85.34,1.7.69,2.54,1.03-.15.86-.38,1.65-.74,2.45-1.35,3.01-1.58,6.44-3.09,9.38,2.87,2.5,6.14,4.49,9.39,6.47-1.47-1.32-3.07-2.5-4.78-3.51-1.44,3.16-3,6.16-4.85,9.1,2.54,2.68,5.19,5.43,8.6,6.84-2.7-1.59-5.21-3.51-7.44-5.71-.19-.18-.38-.38-.43-.64-.06-.3.09-.59.24-.85,1.5-2.74,3-5.49,4.5-8.23,1.25,1.58,2.83,2.9,4.62,3.83,3.16-4.08,7.25-7.33,11.33-10.49.18-.14.37-.28.59-.31.21-.03.42.04.63.11,2.68.92,5.37,1.83,8.05,2.75-3.15-.27-6.23-1.21-9-2.73-1.52,2.06-3.46,3.81-5.65,5.12,1.89,2.57,4.25,4.79,6.94,6.51.59.38,1.21.75,1.62,1.32-1.84,2.81-3.48,5.76-4.9,8.8,2.57,1.06,5.2,2.34,7.75,3.43.19.08.39.17.49.35.11.2.06.45,0,.67-.85,3.36-1.73,6.72-2.64,10.06-1.34-.04-2.6,1.11-2.68,2.44-.08,1.17.62,2.23,1.31,3.18.21.28.42.57.68.8.96.83,2.58.71,3.4-.25.77-.9,1.18-1.93.85-3.07-.2-.69-.67-1.28-1.22-1.74s-1.18-.82-1.81-1.16"/>
  </g>
</svg>