<?xml version="1.0" encoding="UTF-8"?>
<svg id="Layer_2" data-name="Layer 2" xmlns="http://www.w3.org/2000/svg" viewBox="0 0 36.42 40.75">
  <defs>
    <style>
      .cls-1 {
        fill: none;
        stroke: #000;
        stroke-linecap: round;
        stroke-linejoin: round;
        stroke-width: 2.5px;
      }
    </style>
  </defs>
  <g id="Layer_2-2" data-name="Layer 2">
    <g>
      <path class="cls-1" d="M24.7,21.2c1.97-.96,3.87-2.07,5.67-3.31,1.62-1.11,2.93-2.09,4.21-3.58-3.41-5.81-9.88-9.03-16.62-8.94S4.49,8.87,1.25,14.77c2.13,2.23,5.44,4.49,8.36,5.49s5.43,1.59,8.5,1.82c5.12.39,12.85,3.5,16.73,9.24-3.25,4.48-8.74,8.16-15.84,8.17-8.75.01-15.27-6.29-17.7-8.85,3.6-3.9,8.48-7.27,17.08-8.47,1.64-.23,2.72-1.28,3.72-2.6,1.82-2.4,2.19-5.93-.92-7.43-2.77-1.33-6.52-.65-7.72,2.42-.59,1.51-.58,3.28.21,4.69.88,1.58,2.37,2.53,4,2.92,1.76.42,3.01.1,4.61,2.06.99,1.22,1.49,4.2.88,5.65-.98,2.31-3.75,2.84-5.97,2.36-.95-.21-1.9-.58-2.59-1.26-1.57-1.52-1.39-4.96-.13-6.41,1.6-1.85,2.67-2,5.05-2.24,1.23-.13,4.08-.6,5.19-1.15Z"/>
      <path class="cls-1" d="M2.55,6.77c.7,1.4,1.87,1.97,2.86,2.29.35.11.82.02,1.16-.11.64-.24.83-.85.95-1.52.2-1.12.16-2.28-.11-3.39.64.72,1.34,1.43,2.22,1.83s1.98.43,2.75-.15c1.11-.83,1.1-2.47.99-3.85.42.91.85,1.84,1.55,2.55s1.76,1.16,2.72.89c.8-.23,1.4-.91,1.73-1.66s.44-1.59.54-2.41c.22,1.17.54,2.44,1.5,3.15.9.66,1.62.58,2.59.04s1.54-1.66,1.91-2.71c-.13.85-.32,1.98-.16,2.82s.88,1.32,1.68,1.63c1.8.7,3.43-1.62,3.84-2.46-.21.5-.43,1-.64,1.51-.25.58-.5,1.18-.51,1.81s.26,1.31.82,1.6c.24.12.52.17.79.2.41.06.84.1,1.25.04s.82-.25,1.08-.58"/>
      <path class="cls-1" d="M1.25,25.67c.6.63,1.75,2.01,2.62,1.94,1.01-.07,1.73-1.11,1.8-2.12s-.34-1.98-.74-2.91c.41.82,1.02,1.58,1.87,1.93s1.94.2,2.5-.52c.57-.73.47-1.76.31-2.67.37.52.76,1.06,1.3,1.39s1.3.4,1.8,0c2.32.38,4.76-.66,7.11-.67.74,0,1.48.09,2.21.19.73.09,1.49.2,2.12.58,1.11-.82,2.11-1.54,3.04-2.54-.51.79-1.03,1.66-.91,2.59.15,1.08,1.24,1.88,2.32,1.88s2.47-1.05,3.04-1.97c-.23.55-.82,1.46-.89,2.06s.07,1.24.49,1.67c.48.5,1.25.62,1.92.44s1.52-.91,1.99-1.41"/>
    </g>
  </g>
</svg>