<?xml version="1.0" encoding="UTF-8"?>
<svg id="Layer_2" data-name="Layer 2" xmlns="http://www.w3.org/2000/svg" viewBox="0 0 79.43 87.06">
  <defs>
    <style>
      .cls-1 {
        fill: none;
        stroke: #000;
        stroke-linecap: round;
        stroke-linejoin: round;
        stroke-width: 2.5px;
      }
    </style>
  </defs>
  <g id="Layer_2-2" data-name="Layer 2">
    <g>
      <path class="cls-1" d="M4.74,8.65c2.21-3.18,6.41-4.14,10.22-4.85C24.76,1.96,34.86.12,44.64,2.1c8.68,1.76,16.67,6.45,25.49,7.23.94.08,1.92.13,2.72.63.79.49,1.28,1.35,1.7,2.18,1.15,2.26,2.07,4.63,2.76,7.07.96,3.41.87,11.04.88,14.58-2.21-3.12-7.08-3.24-9.46-6.23-1.12-1.4-1.52-3.22-2.33-4.81-1.84-3.57-5.6-5.69-9.29-7.29-6.45-2.79-13.69-4.64-20.49-2.85-3.34.88-6.42,2.59-9.78,3.35-3.82.86-7.94.48-11.54,2.01-6.1,2.59-8.8,9.73-9.8,16.27"/>
      <path class="cls-1" d="M11.65,85.81c-5.04-2.74-8.65-7.85-9.89-13.46s-.18-11.62,2.58-16.65c2.05-3.73,4.97-6.93,6.92-10.71,2.1-4.06,3.12-8.85,6.39-12.04,4.19-4.09,10.69-4.31,16.54-4.29,9.8.03,20.07.18,28.66,4.89"/>
      <path class="cls-1" d="M69.9,38.13c3.69,2,6.27,5.91,6.66,10.09"/>
      <path class="cls-1" d="M73.55,64.82c-3.38-2.69-5.63-6.52-8.38-9.86-7.55-9.16-19.34-14.66-31.21-14.57-1.98.02-3.99.19-5.82.94-3.79,1.56-6.21,5.34-9.72,7.45"/>
      <path class="cls-1" d="M12.8,70.34c-.53-2.2.82-4.7,2.96-5.45.56-.2,1.17-.29,1.7-.56.96-.49,1.54-1.47,2.13-2.36,1.39-2.11,3.14-4.06,5.4-5.18s5.09-1.31,7.26-.02c.3.18.62.39.97.39.3,0,.57-.16.84-.3,3.75-2.01,8.3-1.34,12.49-.61,1.23.21,2.47.43,3.67.78,6.19,1.81,11.02,7.48,12.03,13.85"/>
      <path class="cls-1" d="M23.19,69.65c1.03-1.68,3.16-2.33,5.13-2.43s3.96.21,5.9-.12c2.19-.38,4.14-1.56,6.15-2.51s4.27-1.71,6.43-1.17c1.97.49,3.53,1.99,4.82,3.56s2.42,3.31,3.99,4.59"/>
    </g>
  </g>
</svg>