<?xml version="1.0" encoding="UTF-8"?>
<svg id="Layer_2" data-name="Layer 2" xmlns="http://www.w3.org/2000/svg" viewBox="0 0 39.72 45.09">
  <defs>
    <style>
      .cls-1 {
        fill: none;
        stroke: #000;
        stroke-linecap: round;
        stroke-linejoin: round;
        stroke-width: 2.5px;
      }
    </style>
  </defs>
  <g id="Layer_2-2" data-name="Layer 2">
    <g>
      <path class="cls-1" d="M1.25,11.02c2.31-.18,4.56-1.12,6.31-2.65.33-.29.65-.6.84-.99.27-.54.27-1.17.32-1.77.09-1.25.35-2.48.79-3.65-.2,1.1-.31,2.21-.34,3.32-.02.81,0,1.63.27,2.39s.83,1.46,1.59,1.72c1.06.36,2.27-.21,2.97-1.09s1-2.01,1.24-3.1c.22-.97.45-2,1.13-2.72.76-.8,1.93-1.04,3.03-1.15,1.31-.13,2.68-.11,3.87.45s2.16,1.75,2.1,3.06c-.05,1.09-.76,2.03-1.45,2.87-1.5,1.83-3.07,3.6-4.72,5.29-.61.63-1.24,1.27-1.62,2.05s-.46,1.78.02,2.51c.6.91,1.9,1.14,2.94.81s1.89-1.08,2.7-1.81c1.66-1.5,3.31-2.99,4.97-4.49-1.94,1.86-3.79,3.7-5.73,5.56-.92.88-1.87,1.8-2.31,3s-.22,2.74.85,3.43c.8.51,1.86.43,2.72.03s1.55-1.07,2.23-1.73c1.55-1.51,3.1-3.02,4.65-4.52-1.66,1.57-3.33,3.14-4.99,4.71-.77.73-1.56,1.48-2.03,2.44s-.53,2.18.12,3.03c.75.98,2.23,1.14,3.39.71s2.07-1.34,2.94-2.22c1.2-1.21,2.41-2.43,3.61-3.64"/>
      <path class="cls-1" d="M6.74,15.93c1.45.25,2.93.35,4.4.29"/>
      <path class="cls-1" d="M8.24,22.26c1.36.15,2.75.06,4.08-.26"/>
      <path class="cls-1" d="M10.73,28.48c1.42-.01,2.84-.41,4.06-1.14"/>
      <path class="cls-1" d="M14.14,34.11c1.53.08,3.09-.3,4.41-1.09"/>
      <path class="cls-1" d="M12.71,39.05c-.28.4-.31.92-.21,1.39s.33.91.56,1.33c.39.73.81,1.49,1.53,1.89.18.1.39.18.6.17s.43-.11.53-.3c.07-.13.08-.29.07-.44-.03-1-.53-1.93-1.02-2.81-.14-.25-.28-.51-.49-.72s-.49-.35-.78-.34"/>
      <path class="cls-1" d="M34.73,29.29c-.03.23.09.44.21.64.19.31.38.63.57.94.18.3.36.6.6.84.24.24.53.42.82.6.29.18.62.37.96.34.13-.01.27-.06.37-.15.16-.14.22-.37.2-.58s-.11-.41-.21-.6c-.39-.7-.96-1.27-1.53-1.83-.25-.25-.57-.51-.9-.4"/>
    </g>
  </g>
</svg>