<?xml version="1.0" encoding="UTF-8"?>
<svg id="Layer_2" data-name="Layer 2" xmlns="http://www.w3.org/2000/svg" viewBox="0 0 40.55 74.44">
  <defs>
    <style>
      .cls-1 {
        fill: none;
        stroke: #000;
        stroke-linecap: round;
        stroke-linejoin: round;
        stroke-width: 2.5px;
      }
    </style>
  </defs>
  <g id="Layer_2-2" data-name="Layer 2">
    <g>
      <path class="cls-1" d="M1.25,16.16c.39,12.32.45,24.66,1.17,36.97.15,2.51.3,5.07,1.19,7.43s2.65,4.52,5.06,5.25c1.88,4.16,6.47,6.82,11,7.29,2.1.22,4.29.02,6.21-.86s3.56-2.5,4.19-4.52c2.93-1.66,4.82-4.61,5.84-7.83s1.25-6.61,1.48-9.97c.83-12.02,1.27-24.06,1.91-36.09"/>
      <path class="cls-1" d="M31.77,5.56c.35-.02.35.6.03.75s-.69.03-1.05.01c-.33-.01-.65.07-.97.15-3.33.86-11.88-6.01-15.21-5.15,4.11-.36,13.47,7.34,17.59,7.65-6.62-1.46-16.93-4.08-23.6-2.91,6.34.21,16.31,2.93,21.98,5.78.32.16.65.34.86.63.64.88-.1,2.18.34,3.17-7.12-1.36-14.64-4.66-21.82-5.65,6.44,2.83,13.7,6.59,20.69,7.34-6.66-2.25-17.04-3.85-24.06-3.97,1.63-.57,6.78-.08,8.5.04,5.65.39,11.29.77,16.94,1.16-7.17-1.14-16.55.98-23.44,3.29,6.61,1.39,14.89,2.57,20.49,6.34-4.11-.82-8.2-1.73-12.27-2.74,5.17-1.41,10.86-.84,15.65,1.57-3.4-1.8-7.31-2.5-11.15-2.48s-7.66.72-11.4,1.61c7.41.04,14.56,2.59,21.53,5.1-3.17-1.6-6.82-2.08-10.37-1.86s-7.02,1.1-10.43,2.09c3.31,1.79,7.34,1.21,11.06,1.78,3.33.51,6.48,1.97,9.84,2.23l-4.88-1.53c-1.63-.51-3.3-1.03-5.01-1.02-1.73,0-3.4.54-5.04,1.09-2.24.75-4.73,1.78-5.56,4,2.8-2.13,6.48-2.92,9.99-2.65s6.89,1.5,10.04,3.07c-5.44,1.5-11.19,1.82-16.76.93,2.13,1.97,5.42,1.93,8.27,1.37s5.74-1.52,8.59-.96c-5.41,2.72-16.61,6.74-22.5,5.34,3.76,2.69,14.09-2.39,18.23-.33,1.28.64,2.4,1.66,3,2.97.69,1.52.64,3.25.57,4.92-.24,6-.49,12-.73,18,.67-5.98.68-12.03.03-18.01-.13-1.15-.28-2.32-.79-3.36-.4-.82-1.02-1.53-1.73-2.12-3.23-2.68-8.22-2.55-11.77-.3s-5.73,6.23-6.57,10.34c-.54,2.63-.58,5.32-.39,7.99.14,1.89,0,4.35.95,6"/>
    </g>
  </g>
</svg>