<?xml version="1.0" encoding="UTF-8"?>
<svg id="Layer_2" data-name="Layer 2" xmlns="http://www.w3.org/2000/svg" viewBox="0 0 108.07 64.94">
  <defs>
    <style>
      .cls-1 {
        fill: none;
        stroke: #000;
        stroke-linecap: round;
        stroke-linejoin: round;
        stroke-width: 2.5px;
      }
    </style>
  </defs>
  <g id="Layer_2-2" data-name="Layer 2">
    <g>
      <path class="cls-1" d="M36.41,59.84c6.97-2.84,14.08-5.35,21.3-7.52"/>
      <path class="cls-1" d="M63.8,63.47c2-.49,3.57-2.37,3.69-4.42"/>
      <path class="cls-1" d="M21.78,59.58c-.1,2.27,2.13,4.35,4.39,4.09"/>
      <path class="cls-1" d="M7.96,54.83c5.23-3.04,10.82-5.47,16.61-7.22"/>
      <path class="cls-1" d="M1.29,48.13c-.26-1.97.77-4.05,2.48-5.05"/>
      <path class="cls-1" d="M15.28,35.24c-.15-1.36-.03-2.74.34-4.05.15-.53.36-1.07.76-1.46s1.03-.58,1.52-.33"/>
      <path class="cls-1" d="M7.19,13.95c-.64-1.03.14-2.35.95-3.25.83-.91,1.79-1.79,2.99-2.06"/>
      <path class="cls-1" d="M35.96,10.71c-.19-2.52,1.32-5.08,3.62-6.13"/>
      <path class="cls-1" d="M72.43,1.25c1.68.8,2.93,2.45,3.24,4.28"/>
      <path class="cls-1" d="M93.91,7.23c2.31,1.9,3.18,5.35,2.05,8.12"/>
      <path class="cls-1" d="M104.59,20.55c1.75,1.59,2.58,4.13,2.09,6.44"/>
      <path class="cls-1" d="M99.26,45c1.09-1.66,1.66-3.66,1.61-5.64"/>
      <path class="cls-1" d="M22.23,41.54c22.53,2.94,44.89,7.13,66.95,12.55"/>
      <path class="cls-1" d="M65.38,37.68c9.45.05,18.9.59,28.29,1.6"/>
      <path class="cls-1" d="M72.74,31.26l27.2-2.77"/>
      <path class="cls-1" d="M23.62,31.63l16.44-4.51c2.7-.74,5.4-1.48,8.09-2.24,12.91-3.61,25.74-7.48,38.49-11.63"/>
      <path class="cls-1" d="M15.12,14.59c10.16,2.16,20.43,3.81,30.76,4.93"/>
      <path class="cls-1" d="M47.65,11.07c6.42-.43,12.64-2.34,18.79-4.23"/>
      <path class="cls-1" d="M36.93,33.38c6.53-.8,13.1-1.19,19.68-1.19"/>
    </g>
  </g>
</svg>